<mxfile host="app.diagrams.net" modified="2024-03-27T07:23:01.641Z" agent="Mozilla/5.0 (Windows NT 10.0; Win64; x64) AppleWebKit/537.36 (KHTML, like Gecko) Chrome/122.0.0.0 Safari/537.36" version="24.2.0" etag="FZ0jzAbOsxJMW4kolmbH" type="github">
  <diagram name="Page-1" id="0uKbI22mSpSw_afNmh4N">
    <mxGraphModel>
      <root>
        <mxCell id="0" />
        <mxCell id="1" parent="0" />
      </root>
    </mxGraphModel>
  </diagram>
</mxfile>
